<?xml version="1.0" encoding="utf-8"?>
<!-- Generator: Adobe Illustrator 24.3.0, SVG Export Plug-In . SVG Version: 6.00 Build 0)  -->
<svg version="1.1" id="Layer_1" xmlns="http://www.w3.org/2000/svg" xmlns:xlink="http://www.w3.org/1999/xlink" x="0px" y="0px"
	 viewBox="0 0 499.6 177.4" style="enable-background:new 0 0 499.6 177.4;" xml:space="preserve">
<style type="text/css">
	.st0{fill:#FE5000;}
	.st1{fill:#FFBE92;}
	.st2{fill:#303248;}
	.st3{fill:none;}
</style>
<g>
	<path class="st0" d="M113.3,44.5H63.8c-10.7,0-19.5,8.8-19.5,19.5v49.5c0,10.7,8.8,19.5,19.5,19.5h49.5c10.7,0,19.5-8.8,19.5-19.5
		V63.9C132.8,53.2,124,44.5,113.3,44.5 M108.2,83L108.2,83c-1.2,8.1-8.7,13.4-16.8,13.4H78.5l-10,12.1c-0.6,0.7-1.6,0.4-1.5-0.5
		l1.7-11.6l2.9-20.1c0,0,0,0,0,0l0.4-2.7c0.5-3.8,3.8-6.6,7.6-6.6h2.6h2h11.4C103.7,67.1,109.3,74.9,108.2,83"/>
	<path class="st1" d="M78.5,96.4h16.1c2.5,0,4.9,1,6.6,2.9l8.7,9.4c0.6,0.6,0.1,1.6-0.7,1.6H93.9c-1.6,0-3.1-0.7-4.2-1.9L78.5,96.4z
		"/>
	<path class="st2" d="M191.5,95.2l5.8,10.8c0.4,0.8-0.1,1.8-1,1.8h-10.7c-0.4,0-0.9-0.3-1.1-0.7l-4.7-9.4h-5l-1.6,9
		c-0.1,0.6-0.6,1-1.2,1h-8.8c-0.7,0-1.3-0.7-1.2-1.4l6.3-35.7c0.1-0.6,0.6-1,1.2-1h15.9c9.3,0,14.8,4.2,14.8,11.7
		C200.2,87.2,197,92.3,191.5,95.2 M182.5,87.7c3.4,0,6.2-2.1,6.2-4.8c0-2.3-1.9-3.7-4.6-3.7h-5.9l-1.5,8.5H182.5z"/>
	<path class="st2" d="M215.9,84.2h14.3c0.7,0,1.3,0.7,1.2,1.4l-1.2,6.7c-0.1,0.6-0.6,1-1.2,1h-14.6l-0.9,5h16.9
		c0.7,0,1.3,0.7,1.2,1.4l-1.3,7.1c-0.1,0.6-0.6,1-1.2,1H202c-0.7,0-1.3-0.7-1.2-1.4l6.3-35.7c0.1-0.6,0.6-1,1.2-1h27.1
		c0.7,0,1.3,0.7,1.2,1.4l-1.3,7.1c-0.1,0.6-0.6,1-1.2,1h-17.3L215.9,84.2z"/>
	<path class="st2" d="M270.5,107.7h-7.2c-0.4,0-0.8-0.2-1-0.5L250,89.7l-3,17.1c-0.1,0.6-0.6,1-1.2,1H237c-0.7,0-1.3-0.7-1.2-1.4
		l6.3-35.7c0.1-0.6,0.6-1,1.2-1h6.8c0.4,0,0.8,0.2,1,0.5l12.5,18.1l3.1-17.6c0.1-0.6,0.6-1,1.2-1h8.9c0.7,0,1.3,0.7,1.2,1.4
		l-6.3,35.7C271.6,107.3,271.1,107.7,270.5,107.7"/>
	<path class="st2" d="M320.9,85.6c0,12.7-10.9,22.9-24.3,22.9c-10.7,0-17.4-7.2-17.4-16.8c0-12.7,10.9-22.9,24.3-22.9
		C314.2,68.8,320.9,76,320.9,85.6 M309.2,87.2c-0.1-4.2-2.8-7.7-7.7-7.7c-6,0-10.8,5-10.7,10.7c0.1,4.3,2.8,7.8,7.6,7.8
		C304.3,97.9,309.3,93,309.2,87.2"/>
	<path class="st0" d="M351.7,95.2l5.8,10.8c0.4,0.8-0.1,1.8-1,1.8h-10.7c-0.4,0-0.9-0.3-1.1-0.7l-4.7-9.4h-5l-1.6,9
		c-0.1,0.6-0.6,1-1.2,1h-8.8c-0.7,0-1.3-0.7-1.2-1.4l6.3-35.7c0.1-0.6,0.6-1,1.2-1h15.9c9.3,0,14.8,4.2,14.8,11.7
		C360.4,87.2,357.2,92.3,351.7,95.2 M342.7,87.7c3.4,0,6.2-2.1,6.2-4.8c0-2.3-1.9-3.7-4.6-3.7h-5.9l-1.5,8.5H342.7z"/>
	<path class="st0" d="M399.4,89.3c-2.2,12.5-9.5,19.3-21.4,19.3c-11.5,0-17.5-7.3-15.3-19.3l3.3-18.7c0.1-0.6,0.6-1,1.2-1h9
		c0.7,0,1.3,0.7,1.2,1.4L374,89.7c-0.9,5.2,1,8.3,5.5,8.3c4.3,0,7.5-3.1,8.4-8.3l3.4-19.1c0.1-0.6,0.6-1,1.2-1h9
		c0.7,0,1.3,0.7,1.2,1.4L399.4,89.3z"/>
	<path class="st0" d="M436.2,107.7h-7.2c-0.4,0-0.8-0.2-1-0.5l-12.4-17.6l-3,17.1c-0.1,0.6-0.6,1-1.2,1h-8.8c-0.7,0-1.3-0.7-1.2-1.4
		l6.3-35.7c0.1-0.6,0.6-1,1.2-1h6.8c0.4,0,0.8,0.2,1,0.5l12.5,18.1l3.1-17.6c0.1-0.6,0.6-1,1.2-1h8.9c0.7,0,1.3,0.7,1.2,1.4
		l-6.3,35.7C437.3,107.3,436.8,107.7,436.2,107.7"/>
</g>
<path class="st3" d="M108.2,83L108.2,83c-1.2,8.1-8.7,13.4-16.8,13.4H78.5l-10,12.1c-0.6,0.7-1.6,0.4-1.5-0.5l1.7-11.6l2.9-20.1
	c0,0,0,0,0,0l0.4-2.7c0.5-3.8,3.8-6.6,7.6-6.6h2.6h2h11.4C103.7,67.1,109.3,74.9,108.2,83"/>
</svg>
