<svg width="100" height="100" viewBox="0 0 100 100" fill="none" xmlns="http://www.w3.org/2000/svg">
<path d="M19.667 16.6436H79.667V80.6436H19.667V16.6436Z" fill="white"/>
<path d="M78.0217 0H22.0061C9.91942 0 0 9.89164 0 22.0061V77.9939C0 90.0806 9.89164 100 22.0061 100H77.9939C90.0806 100 100 90.1084 100 77.9939V21.9783C100 9.89164 90.1084 0 78.0217 0ZM72.1867 43.5677C70.8808 52.7369 62.4062 58.7107 53.237 58.7107H38.733L27.3965 72.3534C26.7574 73.1314 25.5904 72.7424 25.7016 71.7977L27.5632 58.683L30.7863 36.01C30.7863 36.01 30.7863 36.01 30.7863 35.9822L31.2031 32.9536C31.8144 28.6746 35.4821 25.4793 39.8166 25.4793H42.7897H45.0959H57.9606C67.1298 25.5349 73.4926 34.4262 72.1867 43.5677Z" fill="#FE5000"/>
<path d="M38.7051 58.6831H56.8768C59.7109 58.6831 62.4061 59.8779 64.3233 61.9618L74.1316 72.6036C74.7707 73.2983 74.2705 74.4375 73.3258 74.4375H56.0154C54.2094 74.4375 52.4589 73.6873 51.2363 72.3536L38.7051 58.6831Z" fill="#FFBE92"/>
</svg>
